<mxfile host="app.diagrams.net" agent="Mozilla/5.0 (Windows NT 10.0; Win64; x64) AppleWebKit/537.36 (KHTML, like Gecko) Chrome/138.0.0.0 Safari/537.36" version="27.2.0">
  <diagram name="Page-1" id="3LBPZVXVRa57ZVAdRkms">
    <mxGraphModel dx="1544" dy="1965" grid="1" gridSize="10" guides="1" tooltips="1" connect="1" arrows="1" fold="1" page="1" pageScale="1" pageWidth="827" pageHeight="1169" math="0" shadow="0">
      <root>
        <mxCell id="0" />
        <mxCell id="1" parent="0" />
        <mxCell id="5dPL2T662DZrtEGffsGk-1" value="" style="rounded=0;whiteSpace=wrap;html=1;" parent="1" vertex="1">
          <mxGeometry y="-80" width="1140" height="720" as="geometry" />
        </mxCell>
        <mxCell id="gj_vHPTRaO-E7spt2F42-1" value="" style="rounded=1;whiteSpace=wrap;html=1;dashed=1;" vertex="1" parent="1">
          <mxGeometry x="50" y="90" width="170" height="190" as="geometry" />
        </mxCell>
        <mxCell id="gj_vHPTRaO-E7spt2F42-2" value="" style="rounded=1;whiteSpace=wrap;html=1;dashed=1;" vertex="1" parent="1">
          <mxGeometry x="50" y="310" width="170" height="190" as="geometry" />
        </mxCell>
        <mxCell id="gj_vHPTRaO-E7spt2F42-3" value="Data Ingestion" style="shape=step;perimeter=stepPerimeter;whiteSpace=wrap;html=1;fixedSize=1;" vertex="1" parent="1">
          <mxGeometry x="55" y="-50" width="185" height="30" as="geometry" />
        </mxCell>
        <mxCell id="gj_vHPTRaO-E7spt2F42-4" value="" style="rounded=1;whiteSpace=wrap;html=1;dashed=1;" vertex="1" parent="1">
          <mxGeometry x="244" y="30" width="596" height="520" as="geometry" />
        </mxCell>
        <mxCell id="gj_vHPTRaO-E7spt2F42-5" value="" style="shape=step;perimeter=stepPerimeter;whiteSpace=wrap;html=1;fixedSize=1;strokeWidth=1;" vertex="1" parent="1">
          <mxGeometry x="240" y="-50" width="570" height="30" as="geometry" />
        </mxCell>
      </root>
    </mxGraphModel>
  </diagram>
</mxfile>
